# xmcd CD database file
#
# Track frame offsets:
#	150
#	21825
#	43787
#	60150
#	81332
#	100045
#	111787
#	126617
#	154337
#	168634
#	195270
#	209262
#	221150
#
# Disc length: 3319 seconds
#
# Revision: 0
# Processed by: cddbd v1.5.2PL0 Copyright (c) Steve Scherf et al.
# Submitted via: CDex 1.70beta2
#
DISCID=b60cf50d
DTITLE=Joyce - Slow Music - OMCX-1240
DYEAR=2009
DGENRE=Jazz
TTITLE0=Slow Music
TTITLE1=Amor, Amor
TTITLE2=Medo de Amar
TTITLE3=Esta tarde vi llover
TTITLE4=Convince Me <Love is Inconvenient>
TTITLE5=Nova Ilusão
TTITLE6=Samba do Grande Amor
TTITLE7=O Amor é Chama
TTITLE8=But Beautiful
TTITLE9=Olhos Negros
TTITLE10=Sobras da Partilha
TTITLE11=Valsa do Pequeno Amor
TTITLE12=Essa Mulher
EXTD=YEAR: 2009
EXTT0=
EXTT1=
EXTT2=
EXTT3=
EXTT4=
EXTT5=
EXTT6=
EXTT7=
EXTT8=
EXTT9=
EXTT10=
EXTT11=
EXTT12=
PLAYORDER=
